<?xml version="1.0" standalone="no"?>
<!DOCTYPE svg PUBLIC "-//W3C//DTD SVG 20010904//EN"
 "http://www.w3.org/TR/2001/REC-SVG-20010904/DTD/svg10.dtd">
<svg version="1.0" xmlns="http://www.w3.org/2000/svg"
 width="512.000000pt" height="512.000000pt" viewBox="0 0 512.000000 512.000000"
 preserveAspectRatio="xMidYMid meet">
<metadata>
Created by potrace 1.14, written by Peter Selinger 2001-2017
</metadata>
<g transform="translate(0.000000,512.000000) scale(0.100000,-0.100000)"
fill="#000000" stroke="none">
<path d="M1100 4634 c-108 -41 -109 -50 -55 -679 8 -93 20 -242 25 -330 6 -88
15 -212 20 -275 23 -265 31 -370 35 -458 4 -73 9 -97 24 -113 23 -25 31 -64
30 -143 -1 -33 -4 -50 -6 -37 l-5 24 -146 -6 c-81 -4 -193 -10 -249 -13 l-103
-7 0 -47 c0 -26 3 -50 7 -54 4 -3 6 -29 4 -57 -2 -35 1 -49 8 -44 6 3 11 16
11 29 0 12 10 32 23 43 24 22 88 58 98 55 4 -1 10 9 13 22 4 15 15 25 33 29
16 3 36 9 46 12 13 6 17 2 17 -19 0 -15 -6 -26 -13 -26 -7 0 -23 -9 -34 -19
-12 -11 -24 -17 -27 -14 -3 4 -6 2 -6 -4 0 -5 -22 -33 -49 -61 -27 -28 -57
-71 -66 -96 -12 -32 -21 -43 -32 -39 -13 5 -14 -1 -9 -33 7 -44 27 -266 52
-574 9 -113 20 -208 23 -211 5 -5 322 57 440 86 20 5 22 11 19 40 -2 18 0 31
4 29 4 -3 8 -54 8 -114 l0 -109 -37 -10 c-137 -37 -450 -97 -459 -89 -6 6 -10
45 -65 558 -21 206 -43 404 -48 440 -8 64 -8 65 -9 15 0 -27 3 -84 8 -125 10
-81 24 -225 41 -415 16 -179 20 -419 7 -455 -7 -22 -24 -38 -57 -54 -109 -54
-164 -88 -212 -128 -62 -52 -63 -78 -4 -90 22 -5 403 -7 846 -6 l807 3 18 22
c19 23 20 23 424 29 460 8 526 4 565 -32 l26 -24 772 0 c425 0 796 3 824 6 39
5 54 12 58 26 4 11 11 15 18 11 7 -4 6 0 -2 10 -7 9 -17 15 -21 12 -4 -2 -16
4 -27 14 -10 10 -37 27 -59 37 -21 10 -64 34 -94 54 -31 19 -72 41 -93 49 -42
17 -44 26 -22 97 21 66 42 175 50 254 4 36 13 97 21 135 20 101 46 317 49 406
2 83 19 129 52 144 23 10 44 70 47 133 3 56 -11 45 -19 -14 -4 -34 -14 -63
-26 -75 -27 -27 -39 -24 -33 9 6 33 141 843 149 892 4 28 3 31 -5 15 -9 -17
-10 -17 -4 5 4 14 8 53 10 87 2 50 0 61 -11 57 -8 -3 -16 -13 -18 -22 -3 -10
-6 -3 -7 13 -1 17 -23 -98 -50 -255 -79 -463 -99 -577 -131 -724 -17 -77 -39
-201 -49 -275 -11 -75 -35 -237 -55 -361 -59 -379 -79 -475 -95 -450 -6 9 -9
7 -14 -7 -6 -18 -11 -18 -118 -6 -62 7 -142 19 -178 27 -36 9 -100 21 -142 27
-106 16 -102 -13 -47 379 11 80 22 155 25 166 4 16 0 23 -15 27 -26 6 -26 -1
-1 287 28 340 51 553 60 575 5 11 11 57 14 102 4 46 13 127 21 180 8 54 13
114 10 133 -4 27 -3 31 4 15 8 -15 10 0 10 55 -1 147 0 160 11 160 7 0 9 8 5
21 -7 20 2 120 45 544 57 549 54 502 33 538 -37 63 58 59 -1502 63 -784 2
-1433 1 -1441 -2z m2875 -24 c11 -5 18 -9 15 -9 -4 -1 -2852 -2 -2913 -1 -5 0
-5 5 -2 10 8 13 2871 13 2900 0z m-407 -192 c-2 -23 -9 -34 -22 -36 -26 -5
-40 12 -32 42 5 19 13 26 32 26 22 0 25 -4 22 -32z m132 -2 c0 -35 -13 -46
-51 -46 -11 0 -19 7 -19 18 0 9 -3 27 -6 40 -6 20 -3 22 35 22 40 0 41 -1 41
-34z m-335 -6 c0 -16 -6 -26 -19 -28 -27 -6 -40 12 -26 38 15 28 45 22 45 -10z
m510 8 c4 -3 2 -15 -4 -26 -13 -24 -61 -19 -61 7 0 10 2 20 5 22 7 7 52 5 60
-3z m87 -76 c2 -4 -1 -56 -8 -117 -6 -60 -12 -104 -13 -97 -1 16 -72 16 -95
-1 -14 -10 -17 -23 -14 -45 l4 -31 -60 -3 c-59 -3 -61 -4 -61 -30 1 -16 -3
-28 -7 -29 -29 -4 -55 -2 -66 5 -6 4 -12 3 -12 -1 0 -24 -21 -284 -26 -320
l-5 -43 145 0 146 0 0 -30 0 -30 -97 -1 c-54 -1 -113 0 -130 1 -68 3 -69 1
-77 -123 -4 -61 -9 -134 -11 -162 -2 -27 -7 -90 -10 -140 -3 -49 -12 -137 -20
-195 -11 -77 -55 -638 -55 -702 0 -3 8 -4 18 -2 9 2 31 0 47 -5 l30 -9 -35 -2
-35 -3 35 -7 c33 -7 31 -7 -17 -9 l-53 -1 -2 -52 -2 -53 -5 50 -5 50 -7 -45
c-6 -42 -3 63 6 170 2 25 6 90 10 145 3 55 11 140 16 189 5 48 14 147 19 220
6 72 14 183 19 246 5 63 12 160 16 215 3 55 13 161 21 235 8 74 17 208 21 298
l6 162 -319 1 c-803 3 -1210 2 -1344 -3 -80 -3 -118 -2 -85 2 39 5 -16 7 -158
7 -181 0 -220 -2 -224 -14 -3 -8 2 -80 10 -161 9 -81 19 -191 23 -245 4 -54
11 -100 15 -103 5 -3 9 8 9 24 0 24 6 32 30 41 19 6 30 17 30 29 0 10 9 28 20
39 16 18 17 22 4 27 -9 3 -12 1 -9 -4 10 -17 -2 -11 -16 8 -7 9 -10 14 -5 10
11 -9 48 10 41 21 -3 5 2 12 11 15 8 3 12 2 9 -4 -3 -6 2 -10 12 -10 17 -1 17
-2 -1 -15 -11 -8 -15 -15 -9 -15 6 0 16 7 24 16 7 9 22 14 36 11 33 -6 28 2
-8 15 l-31 11 32 14 c18 7 42 11 52 7 12 -3 18 -1 16 7 -2 9 13 15 44 19 26 3
44 2 41 -3 -7 -11 41 1 111 29 33 13 65 24 72 24 7 0 15 6 18 13 5 10 7 10 12
0 3 -7 19 -13 35 -13 22 0 30 6 35 25 8 31 68 85 95 85 11 0 29 -5 40 -11 26
-13 54 -4 67 24 9 19 11 19 11 4 1 -10 7 -25 15 -32 11 -12 15 -10 24 11 11
24 32 33 32 14 0 -5 4 -10 10 -10 5 0 6 8 3 18 -6 14 -4 15 9 4 10 -8 19 -9
22 -3 8 13 46 10 46 -4 0 -5 5 -3 10 5 8 13 10 12 10 -3 0 -10 -7 -20 -15 -23
-9 -4 -13 -18 -12 -42 2 -41 -19 -53 -58 -32 -35 19 -70 9 -68 -17 2 -13 -1
-22 -5 -21 -4 1 -18 -2 -31 -6 -14 -5 -27 -4 -33 2 -8 8 -17 4 -30 -14 -20
-24 -48 -33 -48 -14 0 6 -7 10 -15 10 -10 0 -15 11 -15 35 0 19 5 35 10 35 6
0 10 5 10 11 0 5 -5 7 -12 3 -7 -5 -8 -3 -3 5 4 8 20 11 37 9 25 -4 27 -3 15
9 -10 10 -20 11 -40 4 -26 -10 -27 -14 -27 -78 0 -75 -5 -87 -37 -97 -15 -5
-25 -2 -33 11 -10 16 -11 16 -6 1 4 -13 -2 -20 -19 -24 -14 -3 -29 -13 -34
-22 -5 -8 -23 -17 -41 -19 -42 -4 -60 -19 -60 -50 0 -14 -4 -21 -10 -18 -6 4
-7 11 -4 17 15 25 -61 -7 -93 -38 -18 -19 -44 -36 -56 -39 -13 -4 -27 -16 -32
-27 -6 -12 -29 -30 -52 -42 -28 -14 -43 -28 -43 -41 0 -14 -3 -16 -8 -8 -5 8
-8 -1 -8 -22 0 -51 -14 -61 -64 -46 -29 8 -40 17 -40 31 0 11 -5 20 -11 20 -6
0 -8 -11 -5 -27 3 -16 10 -170 17 -343 12 -324 25 -457 30 -310 2 73 2 72 9
-35 4 -60 10 -191 13 -290 5 -166 5 -170 -3 -55 -12 160 -20 194 -16 65 2 -55
0 -125 -4 -155 l-7 -55 -2 60 c-2 56 -28 245 -30 217 -1 -9 -6 -10 -20 -3 -21
11 -31 -2 -31 -40 0 -11 -7 -19 -17 -19 -25 0 -53 30 -53 59 -1 14 -6 36 -13
47 -19 34 -75 94 -88 94 -9 0 -9 3 0 14 9 11 8 17 -3 28 -7 8 -20 40 -27 72
-7 31 -16 59 -21 62 -4 3 -9 22 -10 42 -1 26 -3 18 -7 -23 -6 -55 -7 -50 -14
60 -11 156 -64 848 -76 990 -6 61 -15 175 -21 255 -6 80 -12 157 -14 172 l-3
28 1056 -4 c581 -2 1135 -1 1231 3 268 9 559 11 562 3z m-87 -232 c3 -5 -1
-10 -10 -10 -9 0 -13 5 -10 10 3 6 8 10 10 10 2 0 7 -4 10 -10z m-2390 -90
c-3 -5 1 -10 10 -10 9 0 14 -4 10 -10 -8 -13 -35 -1 -35 16 0 8 5 14 11 14 5
0 7 -4 4 -10z m555 0 c0 -5 -5 -10 -11 -10 -5 0 -7 5 -4 10 3 6 8 10 11 10 2
0 4 -4 4 -10z m20 -20 c0 -16 -4 -30 -8 -30 -5 0 -8 10 -6 23 1 12 3 25 3 30
3 21 11 3 11 -23z m93 23 c-7 -2 -19 -2 -25 0 -7 3 -2 5 12 5 14 0 19 -2 13
-5z m-578 -81 c-5 -14 -7 -14 -15 -2 -6 8 -10 20 -10 25 0 6 5 3 10 -5 7 -11
10 -7 11 20 2 32 2 32 6 7 3 -16 2 -36 -2 -45z m55 46 c0 -19 -2 -20 -10 -8
-13 19 -13 30 0 30 6 0 10 -10 10 -22z m33 5 c-3 -7 -6 -13 -8 -13 -2 0 -5 6
-8 13 -3 8 1 14 8 14 7 0 11 -6 8 -14z m607 10 c-19 -3 -38 -10 -42 -16 -5 -8
-8 -6 -8 6 0 14 8 17 43 15 40 -1 40 -1 7 -5z m-150 -68 c-20 -24 -31 -18 -18
10 8 17 15 22 21 16 7 -7 6 -15 -3 -26z m-203 -11 c-3 -3 -12 -4 -19 -1 -8 3
-5 6 6 6 11 1 17 -2 13 -5z m647 -9 c32 -24 10 -29 -26 -6 -26 16 -29 21 -13
21 11 -1 29 -7 39 -15z m963 -47 c-3 -7 -5 -2 -5 12 0 14 2 19 5 13 2 -7 2
-19 0 -25z m-1127 -2 c0 -3 -4 -8 -10 -11 -5 -3 -10 -1 -10 4 0 6 5 11 10 11
6 0 10 -2 10 -4z m343 -30 c-4 -6 1 -6 13 -2 10 4 15 4 11 0 -4 -4 23 -22 60
-40 38 -18 89 -46 114 -61 25 -15 67 -41 95 -57 27 -16 57 -36 66 -44 15 -13
17 -10 23 25 10 58 13 62 14 16 1 -23 5 -44 10 -47 4 -3 38 -11 75 -18 36 -7
66 -17 66 -22 0 -4 -38 -7 -85 -4 -47 2 -85 1 -85 -4 0 -4 7 -8 15 -8 21 0 19
-40 -2 -56 -17 -12 -16 -13 5 -14 15 0 21 4 16 12 -5 8 -1 9 12 4 15 -6 17 -5
7 5 -20 20 -15 26 18 21 l30 -4 -20 -20 c-12 -10 -21 -29 -21 -41 1 -19 3 -18
15 8 20 42 37 61 63 69 19 6 25 2 37 -28 8 -19 19 -37 25 -41 5 -3 10 -17 10
-30 0 -28 -47 -66 -76 -61 -10 2 -13 1 -6 -1 21 -8 13 -25 -8 -18 -18 6 -20 3
-15 -22 4 -23 4 -24 -4 -8 -9 19 -10 19 -10 -2 -1 -13 -5 -23 -11 -23 -5 0 -7
7 -3 16 3 9 0 20 -8 25 -20 12 -29 11 -24 -4 3 -6 -4 -18 -15 -25 -17 -10 -21
-10 -26 3 -4 8 -4 22 0 30 3 8 1 15 -4 15 -6 0 -10 -7 -10 -16 0 -8 -4 -12
-10 -9 -16 10 -12 23 11 35 13 7 25 8 32 2 7 -5 24 -12 40 -16 34 -8 37 12 5
40 -20 18 -21 18 -15 1 4 -10 3 -16 -2 -13 -13 8 -20 45 -10 52 14 9 10 24 -7
24 -8 0 -12 -4 -9 -10 3 -5 1 -10 -4 -10 -6 0 -11 7 -11 15 0 8 -12 22 -27 32
-16 10 -34 23 -41 30 -19 18 -28 16 -46 -12 -15 -23 -15 -27 0 -58 9 -17 24
-41 34 -52 20 -23 32 -65 19 -65 -5 0 -9 8 -9 18 -1 16 -1 16 -11 0 -5 -10
-19 -18 -30 -18 -11 0 -18 4 -15 9 3 5 -2 15 -11 22 -15 12 -16 12 -10 -3 4
-11 2 -18 -6 -18 -8 0 -7 -4 3 -10 8 -5 11 -12 7 -16 -3 -4 -13 -2 -20 4 -10
9 -19 8 -34 -3 -17 -12 -23 -12 -27 -2 -3 6 -3 2 -1 -10 3 -12 1 -24 -5 -28
-10 -6 -15 27 -11 80 2 33 -17 77 -31 69 -4 -3 -2 -11 4 -18 9 -8 12 -33 9
-77 -5 -64 -5 -64 -11 -20 -4 25 -6 55 -4 68 1 13 -2 23 -6 23 -5 0 -10 8 -12
17 -2 11 -8 3 -15 -20 -12 -41 -8 -50 7 -14 7 17 8 12 3 -18 -3 -22 -10 -43
-15 -46 -5 -3 -8 -21 -6 -40 l4 -34 8 30 c13 51 16 58 22 52 5 -5 -6 -51 -31
-132 -2 -5 -4 0 -4 13 -1 12 -5 30 -10 40 -5 9 -15 30 -22 45 -13 28 -15 28
-77 24 -76 -6 -97 -20 -53 -35 24 -9 31 -17 31 -37 0 -20 -8 -29 -34 -40 -47
-20 -77 -72 -83 -145 -6 -60 -17 -72 -41 -48 -9 9 -15 9 -24 -1 -11 -10 -10
-11 5 -6 10 4 17 2 17 -4 0 -8 -15 -10 -45 -7 -51 6 -73 16 -96 43 -21 23 -33
112 -20 146 14 36 60 76 103 89 32 9 40 8 68 -12 26 -19 34 -20 41 -9 15 24
10 36 -22 49 -17 7 -47 24 -68 38 -32 22 -34 22 -17 3 11 -11 17 -21 15 -22
-2 0 -12 -2 -21 -4 -9 -2 -32 -10 -49 -19 -40 -20 -38 -20 -33 7 4 20 4 20 -5
2 -4 -11 -7 -23 -5 -26 2 -4 -3 -20 -11 -35 -8 -16 -15 -34 -15 -41 0 -7 -6
-10 -13 -7 -8 3 -19 -2 -26 -10 -10 -12 -9 -21 4 -46 19 -37 12 -68 -18 -81
-18 -7 -15 -8 11 -3 21 4 32 2 32 -6 0 -6 3 -9 8 -7 4 3 7 -18 7 -46 0 -33 -4
-52 -12 -52 -6 0 -15 -4 -20 -9 -5 -5 -3 -6 5 -2 6 4 12 3 12 -3 0 -13 -41
-42 -51 -35 -13 7 -31 -35 -24 -56 8 -26 33 -25 62 2 16 15 23 17 23 7 0 -8
-17 -30 -37 -49 -26 -25 -33 -29 -24 -12 16 30 8 28 -28 -9 -24 -23 -26 -29
-11 -24 12 4 26 0 35 -9 19 -19 19 -28 -2 -52 -10 -10 -31 -36 -46 -56 -25
-35 -80 -77 -63 -49 4 6 2 11 -3 11 -6 0 -11 -9 -11 -21 0 -16 4 -19 18 -14
36 15 46 10 54 -30 12 -53 -4 -89 -33 -80 -16 5 -19 4 -14 -5 4 -7 1 -16 -6
-21 -23 -14 -30 -10 -19 11 12 23 7 26 -12 6 -12 -12 -16 -10 -25 14 -9 23 -8
27 3 23 8 -3 14 0 14 7 0 6 -4 9 -9 5 -5 -3 -17 2 -26 12 -29 29 -3 97 47 124
19 10 51 1 42 -12 -3 -5 -1 -9 5 -9 13 0 31 33 31 59 0 12 8 21 22 23 12 2 23
10 26 18 4 12 2 13 -9 3 -7 -7 -20 -13 -28 -13 -14 1 -13 3 2 14 25 19 21 26
-7 13 -18 -9 -22 -15 -14 -24 6 -8 7 -13 1 -13 -6 0 -8 -11 -6 -24 3 -13 0
-27 -6 -30 -6 -4 -11 -2 -11 4 0 6 -4 8 -10 5 -14 -9 -12 9 3 24 10 10 9 11
-6 5 -9 -3 -24 0 -33 7 -13 11 -17 10 -25 -4 -6 -9 -15 -17 -21 -17 -7 0 -7 4
0 13 6 6 12 17 13 22 2 6 10 8 18 7 12 -3 13 -1 3 11 -7 8 -22 13 -32 10 -29
-8 -54 15 -38 34 6 8 20 12 30 10 24 -7 35 13 14 25 -9 5 -16 17 -17 26 0 10
-3 12 -6 5 -2 -7 -13 -13 -23 -13 -10 0 -21 -6 -23 -12 -4 -10 -6 -10 -6 0 -1
13 45 37 89 46 25 6 71 64 69 88 0 7 -4 4 -9 -7 -5 -11 -9 -14 -9 -8 -1 10 -7
10 -26 1 -19 -9 -22 -14 -13 -21 9 -6 7 -7 -6 -3 -11 4 -26 0 -37 -10 -18 -16
-19 -16 -20 2 0 11 -3 13 -6 7 -2 -7 -10 -13 -17 -13 -7 0 -31 -14 -54 -31
-44 -32 -54 -63 -24 -74 9 -3 27 -14 40 -25 19 -16 22 -25 16 -55 -3 -20 -12
-35 -20 -35 -17 0 -18 -16 -1 -24 6 -3 1 -3 -12 0 -23 6 -24 4 -18 -30 3 -20
2 -34 -3 -31 -5 3 -11 1 -14 -4 -4 -5 1 -11 11 -13 15 -3 16 -4 0 -20 -16 -16
-16 -17 5 -20 16 -2 24 -10 25 -28 1 -14 0 -18 -3 -7 -7 21 -52 23 -60 2 -4
-8 -10 -12 -15 -9 -5 3 -9 3 -9 -1 0 -3 12 -10 26 -16 15 -5 25 -12 22 -15 -3
-2 -17 0 -32 5 -17 7 -26 7 -26 1 0 -6 7 -10 15 -10 9 0 21 -11 27 -25 12 -27
6 -41 -12 -30 -9 6 -9 10 1 16 10 6 10 9 2 9 -6 0 -14 -4 -18 -10 -3 -5 -12
-7 -20 -3 -9 3 -23 -1 -33 -8 -9 -7 -14 -10 -10 -5 3 4 -7 22 -23 38 -28 30
-29 32 -12 51 10 11 13 17 7 14 -13 -7 -41 20 -31 30 4 3 14 0 24 -8 15 -12
16 -12 10 3 -3 10 -2 20 4 24 8 5 8 40 0 104 -1 3 -10 6 -20 7 -15 1 -21 -6
-23 -30 -2 -23 -8 -32 -20 -31 -10 1 -15 -2 -12 -7 3 -5 1 -9 -5 -9 -5 0 -11
12 -13 27 -4 38 -35 43 -48 8 -5 -14 -14 -23 -20 -20 -5 3 -10 -2 -10 -11 0
-15 -2 -16 -12 -5 -11 10 -8 17 14 34 20 16 26 28 22 44 -10 37 12 63 54 63
41 0 63 -15 55 -36 -3 -9 2 -14 12 -14 11 0 15 5 11 16 -9 23 43 107 62 99 12
-4 13 -3 2 10 -11 13 -10 14 6 9 16 -6 17 -5 6 7 -7 8 -20 14 -30 14 -10 0
-15 6 -13 15 12 45 7 55 -31 58 -43 4 -44 6 -23 57 9 20 14 44 11 53 -8 25 9
48 26 35 7 -5 29 -13 48 -17 25 -4 31 -3 20 4 -8 5 -23 10 -33 10 -25 0 -48
25 -41 44 13 33 94 11 113 -31 15 -34 14 -43 -6 -37 -17 5 -17 5 0 -6 9 -6 22
-8 29 -4 6 4 8 3 5 -3 -8 -12 34 -43 59 -43 9 0 31 7 50 16 31 15 33 18 20 33
-15 16 -11 71 5 71 5 0 6 -8 3 -17 -5 -17 -4 -17 8 -2 7 9 22 18 33 20 26 5
33 39 8 39 -15 0 -16 2 -3 10 8 5 10 10 4 10 -6 0 -17 -7 -24 -15 -9 -11 -9
-15 -1 -15 7 0 9 -5 5 -11 -5 -8 -9 -8 -14 1 -5 8 -22 1 -56 -25 -27 -21 -51
-40 -54 -44 -10 -13 -30 -10 -30 4 0 8 4 15 9 15 9 0 44 30 151 130 28 26 37
62 13 53 -7 -3 -13 0 -13 6 0 6 5 11 10 11 6 0 10 7 10 15 0 9 7 27 16 40 15
23 15 25 0 31 -9 3 -23 1 -31 -6 -9 -7 -18 -11 -20 -8 -5 5 45 81 57 86 10 5
11 22 1 21 -19 -3 -33 2 -33 11 0 6 10 8 23 5 16 -4 30 2 52 25 16 16 25 30
20 30 -5 0 0 7 12 15 26 18 37 59 22 86 -11 21 -5 30 26 43 6 2 4 13 -4 27
-13 22 -13 23 2 11 13 -11 18 -8 32 23 25 51 67 83 123 91 26 3 56 12 67 18
35 19 229 30 218 12z m-984 0 c-2 -2 -15 -9 -29 -15 -24 -11 -24 -11 -6 3 16
13 49 24 35 12z m-191 -28 c16 -14 15 -25 -4 -32 -12 -4 -15 -2 -11 9 5 10 -4
16 -28 21 -19 3 -35 9 -35 13 0 10 62 1 78 -11z m-28 -28 c0 -5 -2 -10 -4 -10
-3 0 -8 5 -11 10 -3 6 -1 10 4 10 6 0 11 -4 11 -10z m1920 -5 c-7 -9 -15 -13
-17 -11 -7 7 7 26 19 26 6 0 6 -6 -2 -15z m-1940 -16 c0 -5 -4 -9 -10 -9 -5 0
-10 7 -10 16 0 8 5 12 10 9 6 -3 10 -10 10 -16z m1983 1 c-3 -11 -10 -23 -16
-27 -6 -3 -7 -1 -3 5 4 7 1 12 -10 12 -13 0 -14 3 -4 15 18 22 39 19 33 -5z
m37 -25 c0 -25 -25 -41 -36 -23 -5 7 -3 8 5 4 8 -5 12 -3 10 5 -1 8 -1 22 0
32 2 26 21 10 21 -18z m-1985 6 c-3 -6 -11 -11 -16 -11 -5 0 -4 6 3 14 14 16
24 13 13 -3z m1773 -31 c37 -23 42 -54 11 -71 -22 -12 -25 -10 -50 34 -5 9
-15 17 -21 17 -7 0 -5 -7 4 -17 32 -38 33 -46 2 -38 -16 4 -36 8 -45 9 -24 2
-46 29 -46 58 0 24 3 25 56 27 40 1 65 -4 89 -19z m37 2 c-3 -3 -11 0 -18 7
-9 10 -8 11 6 5 10 -3 15 -9 12 -12z m32 -84 c-3 -8 -6 -5 -6 6 -1 11 2 17 5
13 3 -3 4 -12 1 -19z m-9 -46 c4 -42 -18 -50 -59 -24 l-31 19 34 21 c42 26 52
23 56 -16z m-1464 4 c-6 -17 -34 -30 -34 -16 0 5 8 14 18 19 22 13 22 13 16
-3z m16 -19 c0 -2 -9 -12 -20 -22 -24 -21 -27 -14 -4 9 15 15 24 20 24 13z
m-60 -22 c0 -8 -4 -15 -10 -15 -5 0 -7 7 -4 15 4 8 8 15 10 15 2 0 4 -7 4 -15z
m1440 -20 c0 -5 -5 -3 -10 5 -5 8 -10 20 -10 25 0 6 5 3 10 -5 5 -8 10 -19 10
-25z m-1380 5 c0 -5 -5 -10 -11 -10 -5 0 -7 5 -4 10 3 6 8 10 11 10 2 0 4 -4
4 -10z m288 -15 c-3 -3 -9 2 -12 12 -6 14 -5 15 5 6 7 -7 10 -15 7 -18z m-371
-27 c-3 -7 -5 -2 -5 12 0 14 2 19 5 13 2 -7 2 -19 0 -25z m184 -25 c-1 -6 3
-15 9 -18 7 -4 10 0 8 11 -2 10 4 20 12 21 12 3 18 -14 28 -74 7 -43 15 -84
16 -92 1 -8 11 -17 21 -21 13 -4 15 -9 7 -14 -6 -4 -19 2 -28 13 -10 11 -24
17 -32 13 -11 -4 -13 -2 -6 9 11 19 6 50 -13 72 -19 20 -39 22 -49 5 -5 -7 -2
-9 9 -5 12 4 14 2 10 -10 -5 -12 -1 -14 15 -8 16 4 22 2 22 -9 0 -8 -5 -18
-10 -21 -6 -4 -8 -11 -4 -16 9 -15 12 -59 3 -54 -4 3 -20 0 -35 -5 -20 -8 -29
-8 -35 1 -4 6 -12 8 -18 5 -6 -4 -8 -12 -5 -18 4 -6 0 -6 -13 1 -11 6 -23 7
-27 4 -3 -3 -6 2 -6 12 0 15 3 16 12 7 30 -30 32 -4 4 62 -23 55 -20 78 4 41
22 -34 27 -23 6 14 -20 37 -1 75 33 66 20 -5 22 -4 13 7 -7 9 -8 19 -2 28 8
13 10 13 10 -1 0 -8 6 -24 14 -34 12 -17 13 -15 11 25 -3 40 -2 42 7 20 6 -14
10 -30 9 -37z m84 47 c3 -5 1 -10 -4 -10 -6 0 -11 5 -11 10 0 6 2 10 4 10 3 0
8 -4 11 -10z m969 -32 c-4 -15 -3 -18 6 -13 9 6 11 4 5 -4 -9 -15 -20 -5 -30
26 -5 18 -3 22 10 17 10 -4 13 -13 9 -26z m-1384 -2 c0 -3 -4 -8 -10 -11 -5
-3 -10 -1 -10 4 0 6 5 11 10 11 6 0 10 -2 10 -4z m90 -16 c0 -5 -5 -10 -11
-10 -5 0 -7 5 -4 10 3 6 8 10 11 10 2 0 4 -4 4 -10z m60 -33 c0 -5 -4 -5 -10
-2 -5 3 -10 14 -10 23 0 15 2 15 10 2 5 -8 10 -19 10 -23z m297 -23 c-8 -8
-37 26 -37 43 0 11 7 7 21 -11 12 -15 19 -29 16 -32z m903 52 c0 -3 -4 -8 -10
-11 -5 -3 -10 -1 -10 4 0 6 5 11 10 11 6 0 10 -2 10 -4z m20 -21 c0 -8 -4 -15
-10 -15 -5 0 -7 7 -4 15 4 8 8 15 10 15 2 0 4 -7 4 -15z m51 -7 c11 -21 11
-22 -4 -9 -10 7 -17 17 -17 22 0 15 9 10 21 -13z m-1401 -53 c0 -8 -7 -15 -15
-15 -13 0 -14 3 -3 15 16 18 18 18 18 0z m137 -27 c-3 -8 -6 -5 -6 6 -1 11 2
17 5 13 3 -3 4 -12 1 -19z m-173 -47 c-8 -9 -22 12 -17 26 6 15 7 14 13 -3 4
-10 6 -21 4 -23z m51 29 c3 -5 1 -10 -4 -10 -6 0 -11 5 -11 10 0 6 2 10 4 10
3 0 8 -4 11 -10z m1863 5 c-3 -3 4 -17 16 -30 18 -21 23 -22 37 -9 8 8 17 14
20 14 6 0 7 -80 0 -82 -34 -8 -57 -3 -57 14 0 10 4 18 8 18 4 0 0 9 -9 20 -13
14 -19 16 -25 7 -5 -7 -8 1 -8 21 0 18 5 32 12 32 6 0 9 -2 6 -5z m47 -5 c-4
-7 3 -9 22 -5 15 3 21 2 13 -1 -8 -4 -20 -10 -25 -15 -7 -5 -16 0 -23 12 -10
16 -10 19 4 19 8 0 12 -5 9 -10z m-1728 -32 c-3 -7 -5 -2 -5 12 0 14 2 19 5
13 2 -7 2 -19 0 -25z m1250 26 c-3 -3 -12 -4 -19 -1 -8 3 -5 6 6 6 11 1 17 -2
13 -5z m-1540 -46 c-3 -7 -5 -2 -5 12 0 14 2 19 5 13 2 -7 2 -19 0 -25z m238
-11 c-8 -4 -15 -13 -15 -19 0 -7 6 -6 15 2 9 7 18 11 20 8 3 -3 -2 -11 -10
-18 -14 -12 -13 -15 6 -36 l22 -23 -34 12 c-34 12 -52 27 -43 36 3 3 10 -1 15
-9 8 -12 10 -10 6 7 -6 28 14 77 25 60 4 -6 1 -15 -7 -20z m1160 3 c4 -11 11
-17 17 -14 7 4 6 9 -2 14 -9 5 -6 10 10 15 13 4 27 2 34 -5 8 -10 7 -12 -6 -7
-19 7 -25 -8 -8 -18 6 -3 10 -15 10 -26 0 -11 4 -18 8 -15 4 2 6 -10 4 -27 -2
-18 3 -41 11 -52 13 -16 17 -17 31 -6 10 8 16 9 16 3 0 -6 -7 -15 -17 -20 -26
-15 -9 -39 25 -34 35 5 42 -5 47 -61 2 -23 14 -75 27 -114 l24 -72 10 44 c9
41 3 63 -9 33 -4 -10 -8 -9 -16 2 -14 19 -14 33 -1 25 13 -8 13 1 0 24 -13 25
5 87 30 104 11 8 18 16 15 18 -2 3 4 6 13 7 9 1 36 5 58 8 35 5 45 2 63 -17
11 -13 21 -33 21 -45 0 -13 5 -26 10 -29 19 -12 10 -43 -19 -67 -16 -14 -34
-34 -40 -47 -7 -12 -16 -19 -21 -16 -4 3 -15 -2 -24 -10 -13 -14 -15 -11 -19
22 -2 24 -5 11 -7 -34 -1 -40 -4 -77 -5 -83 -1 -5 -3 -20 -5 -32 -1 -14 -4
-18 -7 -9 -5 11 -7 11 -14 0 -6 -10 -9 -7 -10 11 0 14 -5 34 -10 45 -6 14 -8
-6 -5 -62 2 -46 0 -83 -5 -83 -4 0 -6 7 -3 15 4 8 1 15 -5 15 -6 0 -8 7 -5 15
4 9 0 15 -9 15 -19 0 -28 26 -36 99 -3 30 -11 56 -18 58 -8 3 -9 -6 -3 -34 12
-50 4 -55 -9 -6 -14 49 -14 60 1 69 6 4 8 3 5 -3 -3 -5 0 -10 8 -10 21 0 18
14 -5 27 -11 6 -20 20 -20 30 0 11 -3 19 -7 18 -5 -2 -25 8 -46 21 -34 21 -43
22 -75 13 -20 -6 -53 -14 -72 -17 -19 -3 -46 -8 -60 -10 -26 -5 -112 32 -117
51 -3 7 24 11 78 12 92 2 106 7 87 30 -8 10 -9 13 -1 9 6 -4 14 -3 18 3 4 6
12 8 18 4 7 -3 4 1 -7 10 -17 14 -17 16 -2 38 22 31 20 47 -9 90 -14 20 -21
39 -16 43 5 3 12 -4 16 -15 3 -11 10 -20 14 -20 13 0 34 48 28 64 -4 9 -2 16
3 16 5 0 12 -9 15 -20z m185 -1 c0 -5 -4 -9 -10 -9 -5 0 -10 7 -10 16 0 8 5
12 10 9 6 -3 10 -10 10 -16z m557 -1 c-3 -8 -6 -5 -6 6 -1 11 2 17 5 13 3 -3
4 -12 1 -19z m-844 -8 c3 -11 1 -18 -4 -14 -5 3 -9 12 -9 20 0 20 7 17 13 -6z
m252 -1 c-4 -5 1 -9 9 -9 9 0 16 -7 16 -15 0 -9 -9 -15 -21 -15 -14 0 -19 5
-16 15 4 8 2 17 -3 20 -4 3 -11 -1 -13 -7 -4 -8 -6 -7 -6 4 -1 17 18 29 32 21
4 -2 5 -9 2 -14z m-1080 -9 c-3 -5 -12 -10 -18 -10 -7 0 -6 4 3 10 19 12 23
12 15 0z m1509 1 c3 -5 -1 -14 -9 -21 -8 -7 -15 -10 -15 -7 0 3 -3 12 -6 21
-7 17 20 23 30 7z m-1484 -11 c0 -5 -12 -17 -27 -25 -16 -9 -20 -14 -10 -11 9
3 17 1 17 -4 0 -11 -11 -13 -34 -4 -20 8 -9 34 14 34 11 0 22 5 25 10 8 13 15
13 15 0z m870 0 c0 -5 -2 -10 -4 -10 -3 0 -8 5 -11 10 -3 6 -1 10 4 10 6 0 11
-4 11 -10z m-1205 -10 c-3 -5 -16 -10 -28 -9 -20 1 -20 2 3 9 14 4 26 8 28 9
2 1 0 -3 -3 -9z m1075 0 c0 -5 -5 -10 -11 -10 -5 0 -7 5 -4 10 3 6 8 10 11 10
2 0 4 -4 4 -10z m538 -10 c95 -23 106 -24 97 -10 -3 6 -1 10 4 10 11 0 7 -115
-5 -152 -10 -33 -23 -19 -13 14 5 18 9 45 9 59 0 23 -6 28 -44 38 -25 6 -57
11 -73 11 -48 0 -73 11 -73 31 0 23 -3 23 98 -1z m-1695 -15 c-3 -9 -8 -14
-10 -11 -3 3 -2 9 2 15 9 16 15 13 8 -4z m89 -7 c-7 -7 -12 -8 -12 -2 0 14 12
26 19 19 2 -3 -1 -11 -7 -17z m1084 -6 c-2 -4 8 -8 22 -9 26 -1 62 -34 62 -57
0 -7 -17 -13 -41 -15 -35 -2 -41 1 -35 15 5 13 4 14 -7 6 -18 -16 -26 -6 -21
25 3 16 1 22 -6 18 -7 -4 -6 1 1 13 7 12 17 18 21 16 5 -3 6 -8 4 -12z m738 3
c-4 -8 -7 -15 -9 -15 -2 0 -5 7 -9 15 -3 9 0 15 9 15 9 0 12 -6 9 -15z m-1885
-19 c1 7 12 9 29 6 l27 -6 -30 -6 c-36 -8 -45 -4 -44 18 0 14 2 13 9 -3 5 -11
9 -15 9 -9z m211 14 c0 -5 -4 -10 -10 -10 -5 0 -10 5 -10 10 0 6 5 10 10 10 6
0 10 -4 10 -10z m45 -10 c-3 -5 -11 -10 -16 -10 -6 0 -7 5 -4 10 3 6 11 10 16
10 6 0 7 -4 4 -10z m1611 -4 c20 -21 17 -28 -6 -14 -11 7 -20 16 -20 20 0 12
10 9 26 -6z m-333 -49 c-6 -10 -33 18 -33 34 0 8 7 5 19 -7 10 -10 16 -22 14
-27z m-66 12 c-14 -8 -22 -8 -30 0 -8 8 -3 11 19 11 25 -1 27 -2 11 -11z
m-417 -50 c0 -18 -17 -35 -26 -26 -3 2 -8 22 -11 43 l-6 39 21 -19 c12 -11 22
-27 22 -37z m833 36 c-3 -9 -8 -14 -10 -11 -3 3 -2 9 2 15 9 16 15 13 8 -4z
m-203 -15 c8 -5 11 -10 5 -10 -5 0 -17 5 -25 10 -8 5 -10 10 -5 10 6 0 17 -5
25 -10z m-673 -33 c13 -28 -6 -80 -32 -91 -31 -12 -85 -7 -91 9 -9 22 4 63 26
85 29 29 84 27 97 -3z m837 -22 c-4 -8 -8 -15 -10 -15 -2 0 -4 7 -4 15 0 8 4
15 10 15 5 0 7 -7 4 -15z m-2005 -154 c1 -111 -5 -82 -12 49 -3 74 -2 99 3 70
5 -25 9 -78 9 -119z m511 109 c0 -5 -4 -10 -10 -10 -5 0 -10 5 -10 10 0 6 5
10 10 10 6 0 10 -4 10 -10z m425 -39 c-4 -14 -9 -48 -12 -76 -5 -44 -15 -64
-33 -65 -4 0 -5 148 -1 171 1 3 13 4 27 1 22 -4 25 -8 19 -31z m174 -60 c27
-38 20 -64 -17 -69 -13 -2 -19 -8 -15 -17 3 -10 -5 -18 -22 -25 -38 -14 -52
-13 -75 10 -11 11 -20 17 -20 13 0 -4 -5 -2 -12 5 -18 18 -19 82 -1 75 7 -3
13 -13 14 -22 1 -9 4 -5 8 9 9 32 58 41 79 13 13 -17 14 -16 8 8 -11 50 18 50
53 0z m425 14 c4 -11 -1 -14 -19 -13 -27 3 -33 13 -12 21 20 9 25 8 31 -8z
m46 -9 c0 -3 -4 -8 -10 -11 -5 -3 -10 -1 -10 4 0 6 5 11 10 11 6 0 10 -2 10
-4z m-1 -92 c1 -35 -17 -94 -29 -94 -22 0 -17 114 8 154 8 13 20 -23 21 -60z
m-1135 30 c3 -8 2 -12 -4 -9 -6 3 -10 10 -10 16 0 14 7 11 14 -7z m1336 -73
c0 -6 -4 -13 -10 -16 -5 -3 -10 1 -10 9 0 9 5 16 10 16 6 0 10 -4 10 -9z
m-151 -54 c0 -27 -2 -29 -9 -12 -12 28 -12 57 0 50 6 -3 10 -21 9 -38z m-1962
-4 c-3 -10 -5 -4 -5 12 0 17 2 24 5 18 2 -7 2 -21 0 -30z m1193 -3 c-10 -18
-14 -20 -21 -9 -5 8 -9 19 -9 24 0 6 4 3 10 -5 8 -12 10 -12 16 3 3 10 9 16
11 13 3 -2 -1 -14 -7 -26z m-372 -17 c2 -26 1 -26 -12 -8 -8 11 -12 23 -10 27
10 16 20 7 22 -19z m1229 -25 c-3 -8 -6 -5 -6 6 -1 11 2 17 5 13 3 -3 4 -12 1
-19z m-57 2 c0 -5 -4 -10 -10 -10 -5 0 -10 5 -10 10 0 6 5 10 10 10 6 0 10 -4
10 -10z m77 -12 c-3 -8 -6 -5 -6 6 -1 11 2 17 5 13 3 -3 4 -12 1 -19z m-1241
-25 c-10 -10 -19 5 -10 18 6 11 8 11 12 0 2 -7 1 -15 -2 -18z m1481 21 c-3 -3
-12 -4 -19 -1 -8 3 -5 6 6 6 11 1 17 -2 13 -5z m-7 -28 c0 -3 -4 -8 -10 -11
-5 -3 -10 -1 -10 4 0 6 5 11 10 11 6 0 10 -2 10 -4z m-1523 -28 c-3 -8 -6 -5
-6 6 -1 11 2 17 5 13 3 -3 4 -12 1 -19z m-314 -10 c5 -17 -22 -58 -39 -58 -8
0 -14 7 -14 15 0 8 5 15 11 15 5 0 7 -4 4 -10 -3 -5 -1 -10 4 -10 14 0 14 17
1 25 -8 5 -7 11 1 21 14 17 26 18 32 2z m727 -18 c0 -10 5 -22 12 -26 7 -5 9
0 6 14 -4 15 -2 19 8 15 10 -4 13 -15 8 -38 -3 -18 -1 -35 4 -39 6 -4 8 3 4
16 -5 21 -3 20 22 -7 33 -35 68 -100 59 -109 -4 -3 -13 -6 -22 -6 -9 0 -29 -7
-45 -15 -16 -9 -36 -13 -43 -10 -8 2 -11 0 -8 -5 3 -6 1 -10 -4 -10 -21 0 -11
29 20 59 25 26 29 34 19 46 -7 8 -19 15 -27 15 -10 0 -13 6 -9 16 5 14 4 15
-8 5 -18 -15 -24 8 -18 66 4 41 22 52 22 13z m300 19 c0 -8 5 -8 15 1 9 8 15
9 15 2 0 -6 -5 -14 -10 -17 -6 -4 -7 -11 -4 -17 4 -7 9 -7 13 0 12 20 27 -3
21 -31 l-5 -28 -22 20 c-23 22 -46 30 -26 10 9 -9 8 -20 -4 -43 l-17 -31 -10
28 c-10 28 -26 37 -26 13 0 -7 -9 -16 -19 -19 -15 -3 -18 -1 -14 12 3 12 1 11
-11 -3 -16 -19 -16 -19 -16 6 0 13 9 33 20 43 11 10 20 14 20 10 0 -4 8 2 19
13 10 12 21 19 24 15 4 -3 9 2 13 11 7 18 24 22 24 5z m-337 -62 c4 -41 3 -46
-10 -35 -10 8 -13 23 -10 45 4 20 2 31 -4 28 -5 -4 -9 -17 -9 -30 0 -13 -4
-27 -10 -30 -6 -4 -10 8 -10 28 0 26 6 36 23 44 25 12 24 14 30 -50z m412 54
c3 -6 -4 -9 -15 -8 -11 1 -20 5 -20 9 0 11 28 10 35 -1z m423 -11 c-7 -11 -15
-15 -17 -9 -2 6 3 15 10 20 20 12 21 11 7 -11z m32 -17 c0 -15 -2 -16 -10 -3
-8 12 -10 12 -10 1 0 -8 -3 -12 -6 -8 -8 7 4 27 17 27 5 0 9 -8 9 -17z m-431
-12 c8 -15 7 -20 -6 -25 -21 -8 -38 8 -30 28 8 22 24 20 36 -3z m-499 -13 c0
-19 -2 -20 -10 -8 -8 12 -10 10 -10 -10 -1 -22 -2 -23 -11 -7 -8 13 -7 22 1
33 18 21 30 17 30 -8z m1020 7 c0 -13 -14 -35 -22 -35 -6 0 -5 7 3 16 11 13 9
14 -17 8 -16 -4 -32 -11 -35 -17 -4 -6 -9 -5 -13 1 -7 12 52 42 71 35 7 -3 13
-7 13 -8z m-2173 -77 c-2 -18 -4 -6 -4 27 0 33 2 48 4 33 2 -15 2 -42 0 -60z
m-145 15 c28 -25 57 -43 70 -42 l23 0 -22 11 c-28 14 -30 38 -3 38 21 0 21 -2
24 -79 2 -33 -3 -51 -21 -70 -12 -14 -23 -20 -23 -13 0 6 5 12 10 12 7 0 7 6
1 19 -6 10 -8 21 -4 24 3 4 -2 9 -11 13 -9 3 -13 10 -10 15 3 5 10 7 15 4 5
-4 17 -1 26 4 16 9 15 10 -7 11 -15 0 -31 -5 -38 -12 -9 -9 -12 -6 -12 17 0
22 -3 26 -12 17 -9 -9 -9 -17 1 -35 7 -13 13 -39 14 -58 2 -29 -1 -34 -21 -33
-18 0 -21 -3 -16 -20 5 -17 4 -19 -7 -8 -22 21 -40 15 -33 -12 3 -13 1 -27 -5
-30 -6 -4 -11 -26 -11 -49 0 -35 -4 -43 -19 -44 -25 -2 -38 14 -44 52 -2 17
-2 2 0 -33 3 -41 0 -68 -7 -77 -9 -10 -9 -19 -2 -27 11 -14 9 -45 -7 -95 -6
-20 -6 -33 0 -33 12 0 12 -57 0 -65 -6 -3 -15 3 -20 14 -14 25 -14 68 -1 76
17 11 11 24 -10 22 -21 -1 -32 -35 -34 -108 0 -30 -4 -39 -16 -37 -10 2 -15
16 -16 43 -1 22 -2 49 -3 60 l-2 20 -9 -20 c-5 -11 -9 -15 -10 -10 -1 6 -5 -1
-10 -15 -6 -21 -7 -17 -8 18 0 44 14 64 29 41 6 -10 9 -5 10 16 3 47 -2 79
-12 86 -12 7 0 89 12 89 5 0 15 -11 21 -25 14 -31 38 -33 38 -2 0 13 3 27 8
33 4 5 -3 -1 -15 -14 -26 -26 -30 -22 -9 11 17 27 33 80 17 57 -7 -9 -11 -10
-11 -3 0 6 4 14 9 17 5 3 7 26 4 51 -2 27 0 45 6 45 5 0 13 16 16 35 3 19 7
50 10 68 3 17 9 38 14 45 10 16 84 43 91 34 3 -4 26 -26 52 -49z m2265 15 c-3
-8 -6 -5 -6 6 -1 11 2 17 5 13 3 -3 4 -12 1 -19z m-373 -87 c33 -53 49 -98 40
-112 -4 -7 -3 -10 3 -6 13 8 26 -20 16 -35 -3 -7 -1 -8 5 -4 11 7 82 -78 82
-98 0 -7 -12 -11 -26 -11 -28 2 -49 30 -78 108 -19 52 -22 54 -52 32 -19 -13
-23 -12 -47 13 -32 34 -48 74 -36 93 5 8 9 24 9 36 0 45 52 36 84 -16z m346
27 c29 4 42 -13 31 -41 -6 -15 -15 -27 -21 -27 -6 0 -8 4 -5 10 3 5 0 7 -8 4
-10 -3 -18 5 -26 27 -14 40 -14 42 2 32 6 -4 19 -7 27 -5z m-46 -27 c-2 -3
-12 3 -22 13 -16 17 -16 18 5 5 12 -7 20 -15 17 -18z m-1104 -1 c0 -5 -4 -10
-10 -10 -5 0 -10 5 -10 10 0 6 5 10 10 10 6 0 10 -4 10 -10z m223 0 c14 0 26
-10 34 -25 6 -14 8 -25 5 -25 -4 0 -7 -11 -7 -24 0 -13 3 -22 8 -19 4 2 7 0 7
-6 0 -15 -39 -34 -56 -27 -8 3 -14 15 -14 26 0 20 -16 26 -36 12 -7 -4 -17
-27 -24 -52 -10 -38 -46 -128 -55 -138 -6 -6 -45 18 -45 28 0 19 76 137 86
133 7 -2 15 8 18 22 4 14 11 23 16 20 6 -4 7 6 4 24 -8 40 2 65 22 57 9 -3 25
-6 37 -6z m-1156 -67 c-2 -16 -4 -5 -4 22 0 28 2 40 4 28 2 -13 2 -35 0 -50z
m2036 50 c-7 -2 -19 -2 -25 0 -7 3 -2 5 12 5 14 0 19 -2 13 -5z m-1133 -83
c-6 -11 -15 -20 -21 -20 -6 0 -3 7 6 16 9 10 14 26 11 36 -2 11 -2 27 2 36 5
12 8 8 10 -15 2 -18 -2 -41 -8 -53z m-150 45 c0 -14 -4 -25 -9 -25 -12 0 -23
29 -15 41 10 18 24 9 24 -16z m201 2 c-10 -9 -11 -8 -5 6 3 10 9 15 12 12 3
-3 0 -11 -7 -18z m1009 3 c-8 -5 -22 -9 -30 -9 -10 0 -8 3 5 9 27 12 43 12 25
0z m60 -1 c0 -6 -7 -8 -16 -5 -12 4 -15 2 -11 -9 4 -8 2 -17 -3 -20 -6 -4 -10
-2 -10 4 0 6 -8 8 -17 4 -12 -4 -9 1 7 15 27 23 50 28 50 11z m163 -4 c-3 -9
-8 -14 -10 -11 -3 3 -2 9 2 15 9 16 15 13 8 -4z m-2542 -34 c5 -26 2 -38 -15
-55 l-21 -21 -3 44 c-2 24 -1 50 2 58 9 24 30 9 37 -26z m1339 24 c0 -8 -7
-15 -15 -15 -13 0 -14 3 -3 15 16 18 18 18 18 0z m434 -13 c2 -4 1 -14 -3 -21
-7 -10 -13 -10 -30 -2 -27 15 -27 25 -1 18 11 -3 20 -1 20 4 0 5 -7 9 -15 9
-8 0 -15 5 -15 10 0 11 35 -3 44 -18z m483 6 c-3 -8 -6 -5 -6 6 -1 11 2 17 5
13 3 -3 4 -12 1 -19z m-575 5 c-6 -2 -10 -9 -7 -14 4 -5 -2 -6 -12 -2 -10 3
-15 3 -11 -2 4 -4 3 -16 -3 -26 -6 -13 -6 -19 1 -19 14 0 13 -23 -5 -56 -12
-23 -15 -25 -21 -11 -7 19 -34 24 -34 6 0 -5 4 -8 8 -5 4 2 13 -4 20 -15 7
-10 8 -19 3 -19 -6 0 -13 6 -17 12 -6 9 -10 5 -14 -11 -3 -14 -12 -27 -19 -29
-10 -3 -11 0 -5 9 5 8 9 24 9 36 1 18 -2 20 -18 11 -12 -6 -17 -6 -13 0 3 5
19 15 36 22 16 7 30 16 30 21 0 5 5 9 11 9 5 0 7 -4 4 -10 -3 -5 -1 -10 4 -10
6 0 11 7 11 15 0 8 -5 15 -12 15 -9 0 -9 3 0 12 7 7 12 20 12 30 0 17 25 38
45 37 6 0 4 -3 -3 -6z m19 -27 c-14 -36 -22 -33 -9 5 6 16 12 28 14 26 3 -2 0
-16 -5 -31z m999 10 c0 -2 -7 -9 -15 -16 -13 -11 -14 -10 -9 4 5 14 24 23 24
12z m-2452 -32 c-9 -8 12 -75 27 -91 12 -11 16 -10 25 7 9 17 14 19 26 9 16
-13 18 -38 4 -88 -5 -20 -12 -49 -15 -64 -7 -34 -25 -26 -26 11 l-1 27 -9 -25
c-7 -20 -8 -17 -5 16 5 57 -5 71 -40 55 -23 -10 -30 -10 -43 3 -14 15 -14 16
1 16 8 0 21 6 27 14 10 12 8 19 -11 38 -20 20 -21 23 -5 26 9 2 17 9 17 16 0
12 19 36 29 36 2 0 2 -3 -1 -6z m1502 -10 c0 -2 -12 -4 -27 -4 -21 0 -24 3
-14 9 13 8 41 5 41 -5z m610 2 c0 -3 -4 -8 -10 -11 -5 -3 -10 -1 -10 4 0 6 5
11 10 11 6 0 10 -2 10 -4z m25 -6 c3 -5 1 -10 -4 -10 -6 0 -11 5 -11 10 0 6 2
10 4 10 3 0 8 -4 11 -10z m322 -12 c-3 -8 -6 -5 -6 6 -1 11 2 17 5 13 3 -3 4
-12 1 -19z m-2367 2 c12 -8 9 -10 -12 -10 -16 0 -28 5 -28 10 0 13 20 13 40 0z
m930 -34 c0 -6 -7 -1 -15 10 -8 10 -15 23 -15 28 0 6 7 1 15 -10 8 -10 15 -23
15 -28z m40 34 c-8 -5 -19 -10 -25 -10 -5 0 -3 5 5 10 8 5 20 10 25 10 6 0 3
-5 -5 -10z m450 -29 c13 -25 13 -28 -4 -34 -9 -4 -13 -1 -11 6 7 17 -11 41
-24 33 -6 -4 -9 -19 -6 -34 l5 -27 -12 28 c-7 15 -17 27 -22 28 -16 1 26 17
46 18 10 1 22 -8 28 -18z m37 13 c-3 -3 -12 -4 -19 -1 -8 3 -5 6 6 6 11 1 17
-2 13 -5z m-521 -42 c-17 -16 -18 -16 -5 5 7 12 15 20 18 17 3 -2 -3 -12 -13
-22z m-909 -34 c-2 -13 -4 -5 -4 17 -1 22 1 32 4 23 2 -10 2 -28 0 -40z m1323
36 c0 -2 -9 -4 -21 -4 -11 0 -18 4 -14 10 5 8 35 3 35 -6z m704 4 c-3 -4 -9
-8 -15 -8 -5 0 -9 4 -9 8 0 5 7 9 15 9 8 0 12 -4 9 -9z m-2220 -36 c-7 -33
-34 -45 -34 -15 0 14 31 54 38 48 1 -1 -1 -16 -4 -33z m593 -44 c-2 -18 -4 -6
-4 27 0 33 2 48 4 33 2 -15 2 -42 0 -60z m1079 44 c3 4 18 2 34 -4 51 -17 49
-62 -4 -76 -46 -13 -55 -6 -50 38 2 21 0 41 -6 45 -5 3 -10 12 -10 18 0 7 7 3
15 -7 8 -11 17 -17 21 -14z m187 12 c20 -8 23 -34 3 -34 -8 0 -18 9 -21 20 -3
11 -11 20 -17 20 -6 0 -3 -11 6 -25 18 -27 8 -32 -25 -14 -20 10 -20 11 -3 30
10 11 22 17 28 14 6 -3 19 -8 29 -11z m-506 -15 c2 -16 -1 -19 -9 -11 -5 5 -7
15 -4 21 10 15 12 14 13 -10z m423 11 c-12 -7 -12 -12 4 -29 17 -19 17 -21 2
-21 -16 0 -38 38 -29 53 2 4 12 7 21 7 14 0 15 -2 2 -10z m-1810 -70 c23 12
35 -12 20 -41 -9 -15 -14 -17 -29 -7 -18 11 -34 72 -22 84 4 3 7 -6 9 -20 3
-22 6 -24 22 -16z m1150 26 c0 -2 -7 -7 -16 -10 -8 -3 -12 -2 -9 4 6 10 25 14
25 6z m240 -6 c0 -5 -5 -10 -11 -10 -5 0 -7 5 -4 10 3 6 8 10 11 10 2 0 4 -4
4 -10z m514 -6 c22 -21 20 -30 -6 -38 -21 -7 -19 -9 17 -20 l40 -13 -39 1
c-45 2 -57 19 -27 38 19 11 19 14 4 30 -20 22 -10 24 11 2z m-34 2 c0 -3 -4
-8 -10 -11 -5 -3 -10 -1 -10 4 0 6 5 11 10 11 6 0 10 -2 10 -4z m-710 -15 c0
-6 -4 -13 -10 -16 -5 -3 -10 1 -10 9 0 9 5 16 10 16 6 0 10 -4 10 -9z m657 -7
c-3 -3 -12 -4 -19 -1 -8 3 -5 6 6 6 11 1 17 -2 13 -5z m-312 -24 c3 -5 -1 -10
-9 -10 -8 0 -22 -7 -30 -16 -17 -17 -19 -14 -10 10 3 9 10 13 15 10 5 -3 9 0
9 5 0 14 17 14 25 1z m290 -20 c3 -5 1 -10 -4 -10 -6 0 -11 5 -11 10 0 6 2 10
4 10 3 0 8 -4 11 -10z m-290 -21 c-3 -4 -12 -6 -20 -3 -8 4 -13 10 -10 15 3 4
12 6 20 3 8 -4 13 -10 10 -15z m982 -71 c-2 -18 -4 -6 -4 27 0 33 2 48 4 33 2
-15 2 -42 0 -60z m-642 51 c4 -6 5 -12 2 -15 -7 -7 -37 7 -37 17 0 13 27 11
35 -2z m-290 -49 c3 -6 -1 -7 -9 -4 -18 7 -21 14 -7 14 6 0 13 -4 16 -10z
m-1499 -9 c-4 -5 -1 -11 6 -13 10 -4 9 -8 -2 -19 -19 -18 -40 -22 -40 -9 0 15
23 50 33 50 4 0 6 -4 3 -9z m-74 -33 c26 -39 30 -65 13 -72 -13 -4 -15 -1 -10
14 5 15 0 23 -19 32 -29 13 -31 19 -14 36 15 15 13 16 30 -10z m1658 8 c0 -2
-7 -6 -15 -10 -8 -3 -15 -1 -15 4 0 6 7 10 15 10 8 0 15 -2 15 -4z m-533 -48
c-3 -7 -5 -2 -5 12 0 14 2 19 5 13 2 -7 2 -19 0 -25z m1350 -60 c-2 -18 -4 -4
-4 32 0 36 2 50 4 33 2 -18 2 -48 0 -65z m-2267 67 c0 -8 -2 -15 -4 -15 -2 0
-6 7 -10 15 -3 8 -1 15 4 15 6 0 10 -7 10 -15z m457 -32 c-3 -10 -5 -2 -5 17
0 19 2 27 5 18 2 -10 2 -26 0 -35z m-541 10 c3 -16 7 -34 9 -40 5 -15 -16 -13
-27 2 -11 15 -10 65 2 65 5 0 12 -12 16 -27z m1524 -4 c0 -6 -4 -7 -10 -4 -5
3 -10 11 -10 16 0 6 5 7 10 4 6 -3 10 -11 10 -16z m-1662 -42 c4 -29 -12 -37
-22 -11 -10 26 -7 46 7 42 6 -3 13 -17 15 -31z m2582 15 c0 -5 -13 -7 -30 -4
-16 2 -30 6 -30 8 0 2 14 4 30 4 17 0 30 -4 30 -8z m-2410 -72 c0 -13 -1 -13
-10 0 -5 8 -10 22 -10 30 0 13 1 13 10 0 5 -8 10 -22 10 -30z m107 -7 c-3 -10
-5 -2 -5 17 0 19 2 27 5 18 2 -10 2 -26 0 -35z m2383 35 c0 -11 -28 -10 -35 1
-3 6 4 9 15 8 11 -1 20 -5 20 -9z m-2699 -65 c-10 -17 -10 -17 -11 2 0 11 4
31 8 45 l7 25 3 -27 c2 -15 -1 -35 -7 -45z m79 48 c0 -5 -6 -14 -14 -20 -12
-10 -14 -9 -11 6 2 10 4 19 4 21 2 6 21 1 21 -7z m85 -11 c3 -5 1 -10 -4 -10
-6 0 -11 5 -11 10 0 6 2 10 4 10 3 0 8 -4 11 -10z m-30 -30 c0 -22 -21 -22
-22 1 -1 12 3 19 10 16 7 -2 12 -10 12 -17z m723 -32 c70 -2 470 -4 890 -6
l762 -3 1 23 2 23 4 -22 c3 -18 12 -23 36 -24 18 -1 36 -1 41 0 6 1 20 0 33
-4 19 -4 23 -12 23 -40 0 -19 5 -35 10 -35 6 0 10 -4 10 -10 0 -5 -24 -10 -52
-10 -38 0 -49 -3 -38 -10 13 -9 13 -10 0 -12 -8 -1 21 -5 65 -8 44 -3 -406 -6
-1000 -6 -594 0 -1053 2 -1020 5 36 4 61 11 63 19 1 7 -9 12 -25 12 -23 0 -25
-2 -13 -11 12 -9 12 -10 -3 -5 -10 3 -24 6 -30 6 -8 0 -7 3 2 9 8 6 -5 11 -41
15 -29 4 -59 11 -67 15 -12 8 -19 56 -9 66 2 2 47 5 100 6 91 1 95 2 92 23 -2
11 -2 15 2 9 8 -19 24 -16 25 5 1 12 3 10 6 -5 4 -21 10 -22 131 -25z m1809
-30 c-3 -8 -6 -5 -6 6 -1 11 2 17 5 13 3 -3 4 -12 1 -19z"/>
<path d="M2475 4311 l40 -5 -45 -6 -45 -7 52 -1 c33 -1 53 2 56 11 4 10 6 10
6 0 1 -15 41 -18 41 -3 0 6 5 10 11 10 5 0 7 -4 4 -10 -3 -5 3 -10 15 -10 13
0 19 4 14 12 -5 7 -3 8 6 3 19 -12 184 -12 192 0 5 6 8 5 8 -2 0 -10 52 -13
233 -11 136 1 205 4 167 8 l-65 6 55 5 c30 3 -134 5 -365 5 -231 1 -402 -2
-380 -5z m622 -8 c-20 -2 -52 -2 -70 0 -17 2 0 4 38 4 39 0 53 -2 32 -4z"/>
<path d="M3594 4309 c-3 -6 -15 -9 -25 -6 -18 5 -25 -3 -13 -16 8 -7 54 13 54
25 0 11 -8 10 -16 -3z"/>
<path d="M3895 4310 c-3 -5 -1 -10 4 -10 6 0 11 5 11 10 0 6 -2 10 -4 10 -3 0
-8 -4 -11 -10z"/>
<path d="M2237 4303 c18 -2 50 -2 70 0 21 2 7 4 -32 4 -38 0 -55 -2 -38 -4z"/>
<path d="M2365 4300 c28 -12 45 -12 45 0 0 6 -15 10 -32 9 -28 0 -30 -2 -13
-9z"/>
<path d="M3420 4299 c0 -5 5 -7 10 -4 6 3 10 8 10 11 0 2 -4 4 -10 4 -5 0 -10
-5 -10 -11z"/>
<path d="M3505 4290 c-3 -5 -2 -10 4 -10 5 0 13 5 16 10 3 6 2 10 -4 10 -5 0
-13 -4 -16 -10z"/>
<path d="M1251 4167 c-1 -12 5 -17 16 -15 19 3 31 28 13 28 -6 0 -8 -4 -5 -10
3 -5 2 -10 -4 -10 -5 0 -12 6 -14 13 -3 7 -6 4 -6 -6z"/>
<path d="M1320 4146 c0 -2 15 -6 34 -8 19 -2 32 0 30 4 -5 8 -64 12 -64 4z"/>
<path d="M1520 4141 c-19 -5 -26 -14 -28 -39 l-3 -32 155 0 156 0 0 24 c0 13
3 31 6 40 5 14 -9 16 -127 15 -74 -1 -145 -4 -159 -8z"/>
<path d="M1320 4108 c0 -5 11 -8 24 -8 14 0 27 3 29 8 3 4 -8 7 -24 7 -16 0
-29 -3 -29 -7z"/>
<path d="M1257 4083 c-15 -15 -7 -43 13 -43 15 0 20 7 20 25 0 24 -18 34 -33
18z m23 -17 c0 -3 -4 -8 -10 -11 -5 -3 -10 -1 -10 4 0 6 5 11 10 11 6 0 10 -2
10 -4z"/>
<path d="M1192 4034 c9 -3 19 -13 22 -22 3 -12 4 -12 3 3 -1 12 -10 21 -22 22
-15 1 -15 0 -3 -3z"/>
<path d="M1320 4015 c0 -8 5 -15 10 -15 6 0 10 7 10 15 0 8 -4 15 -10 15 -5 0
-10 -7 -10 -15z"/>
<path d="M1255 4009 c-11 -16 -1 -19 13 -3 7 8 8 14 3 14 -5 0 -13 -5 -16 -11z"/>
<path d="M1180 3997 c0 -10 8 -17 18 -17 9 0 13 4 7 8 -5 4 -13 11 -17 16 -5
5 -8 2 -8 -7z"/>
<path d="M1320 3980 c0 -5 5 -10 11 -10 5 0 7 5 4 10 -3 6 -8 10 -11 10 -2 0
-4 -4 -4 -10z"/>
<path d="M2152 3850 c0 -19 2 -27 5 -17 2 9 2 25 0 35 -3 9 -5 1 -5 -18z"/>
<path d="M2218 3853 c6 -2 18 -2 25 0 6 3 1 5 -13 5 -14 0 -19 -2 -12 -5z"/>
<path d="M1268 3793 c6 -2 18 -2 25 0 6 3 1 5 -13 5 -14 0 -19 -2 -12 -5z"/>
<path d="M2140 3780 c20 -13 33 -13 25 0 -3 6 -14 10 -23 10 -15 0 -15 -2 -2
-10z"/>
<path d="M1796 3771 c-4 -5 3 -7 14 -4 23 6 26 13 6 13 -8 0 -17 -4 -20 -9z"/>
<path d="M1889 3763 c-13 -16 -12 -17 4 -4 9 7 17 15 17 17 0 8 -8 3 -21 -13z"/>
<path d="M3592 3750 c0 -14 2 -19 5 -12 2 6 2 18 0 25 -3 6 -5 1 -5 -13z"/>
<path d="M1720 3695 c0 -2 6 -8 13 -14 10 -8 14 -7 14 2 0 8 -6 14 -14 14 -7
0 -13 -1 -13 -2z"/>
<path d="M1260 3666 c0 -2 7 -7 16 -10 8 -3 12 -2 9 4 -6 10 -25 14 -25 6z"/>
<path d="M1348 3653 c7 -3 16 -2 19 1 4 3 -2 6 -13 5 -11 0 -14 -3 -6 -6z"/>
<path d="M1501 3484 c0 -11 3 -14 6 -6 3 7 2 16 -1 19 -3 4 -6 -2 -5 -13z"/>
<path d="M1522 3460 c0 -14 2 -19 5 -12 2 6 2 18 0 25 -3 6 -5 1 -5 -13z"/>
<path d="M1231 3274 c0 -11 3 -14 6 -6 3 7 2 16 -1 19 -3 4 -6 -2 -5 -13z"/>
<path d="M1361 3094 c0 -11 3 -14 6 -6 3 7 2 16 -1 19 -3 4 -6 -2 -5 -13z"/>
<path d="M1230 3050 c0 -5 5 -10 10 -10 6 0 10 5 10 10 0 6 -4 10 -10 10 -5 0
-10 -4 -10 -10z"/>
<path d="M1324 3013 c4 -7 -2 -13 -16 -15 -22 -3 -22 -4 3 -9 27 -6 34 10 14
28 -4 4 -5 3 -1 -4z"/>
<path d="M1362 3005 c4 -5 3 -14 -3 -21 -16 -19 -2 -34 29 -33 15 1 20 3 10 6
-9 2 -19 11 -22 20 -5 12 -1 14 20 10 14 -2 22 -1 17 3 -11 10 -60 24 -51 15z"/>
<path d="M1296 2966 c7 -19 20 -21 30 -3 4 6 4 9 -1 5 -4 -4 -14 -3 -22 4 -11
8 -12 7 -7 -6z"/>
<path d="M1236 2953 c-6 -14 -5 -15 5 -6 7 7 10 15 7 18 -3 3 -9 -2 -12 -12z"/>
<path d="M1340 2940 c0 -6 7 -10 15 -10 8 0 15 2 15 4 0 2 -7 6 -15 10 -8 3
-15 1 -15 -4z"/>
<path d="M3523 2915 c0 -22 2 -30 4 -17 2 12 2 30 0 40 -3 9 -5 -1 -4 -23z"/>
<path d="M1280 2901 c0 -6 3 -10 8 -10 18 3 32 -2 32 -12 0 -7 -9 -9 -21 -6
-16 4 -19 3 -11 -5 14 -14 42 -3 42 17 0 8 -4 15 -9 15 -5 0 -16 3 -25 6 -9 3
-16 1 -16 -5z"/>
<path d="M1352 2896 c7 -8 17 -12 22 -9 4 3 2 9 -5 14 -22 13 -31 11 -17 -5z"/>
<path d="M1380 2870 c-9 -6 -10 -10 -3 -10 6 0 15 5 18 10 8 12 4 12 -15 0z"/>
<path d="M1346 2863 c-11 -11 -6 -23 10 -23 8 0 13 -4 9 -10 -3 -5 -12 -7 -20
-3 -11 4 -13 1 -9 -10 3 -9 12 -13 21 -10 10 4 14 2 9 -5 -3 -6 -2 -13 3 -16
5 -3 11 5 13 19 5 25 -23 71 -36 58z"/>
<path d="M1442 2840 c0 -14 2 -19 5 -12 2 6 2 18 0 25 -3 6 -5 1 -5 -13z"/>
<path d="M1303 2828 c-23 -30 -24 -41 -2 -21 12 12 20 25 17 28 -3 3 -10 0
-15 -7z"/>
<path d="M1488 2793 c7 -3 16 -2 19 1 4 3 -2 6 -13 5 -11 0 -14 -3 -6 -6z"/>
<path d="M1320 2781 c17 -5 26 -15 28 -31 7 -63 11 -70 45 -70 29 0 32 2 31
31 -1 33 -29 63 -50 55 -7 -3 -15 2 -18 10 -3 8 -17 14 -33 13 l-28 -1 25 -7z
m90 -41 c0 -5 -4 -10 -9 -10 -6 0 -13 5 -16 10 -3 6 1 10 9 10 9 0 16 -4 16
-10z m0 -35 c0 -9 -9 -15 -22 -15 -21 0 -21 0 -2 15 24 18 24 18 24 0z"/>
<path d="M1457 2733 c-3 -5 8 -8 25 -9 20 -1 25 2 16 7 -16 11 -35 11 -41 2z"/>
<path d="M1460 2694 c0 -5 7 -19 15 -30 8 -10 15 -14 15 -8 0 5 -7 19 -15 30
-8 10 -15 14 -15 8z"/>
<path d="M1373 2619 c10 -6 23 -6 33 -1 12 7 8 9 -18 10 -26 1 -30 -1 -15 -9z"/>
<path d="M1430 2594 c0 -59 46 -87 67 -41 9 19 7 27 -14 45 -33 30 -53 28 -53
-4z m25 6 c3 -5 1 -10 -4 -10 -6 0 -11 5 -11 10 0 6 2 10 4 10 3 0 8 -4 11
-10z"/>
<path d="M1572 2600 c0 -14 2 -19 5 -12 2 6 2 18 0 25 -3 6 -5 1 -5 -13z"/>
<path d="M3488 2223 c7 -3 16 -2 19 1 4 3 -2 6 -13 5 -11 0 -14 -3 -6 -6z"/>
<path d="M2919 3697 c18 -22 71 -51 71 -38 0 4 -7 14 -15 21 -8 7 -15 10 -15
6 0 -4 -12 1 -27 11 -27 17 -27 17 -14 0z"/>
<path d="M3000 3657 c0 -8 -11 -18 -25 -21 -14 -4 -25 -12 -25 -18 0 -7 -7 -3
-16 8 -8 10 -3 -5 13 -35 30 -59 50 -73 68 -48 7 10 21 17 31 18 17 0 17 1 2
7 -14 6 -15 9 -2 26 13 19 14 19 34 1 14 -13 17 -22 10 -36 -13 -23 -13 -29 3
-29 18 0 17 46 -2 64 -56 53 -91 77 -91 63z m32 -59 c-8 -8 -9 -4 -5 13 4 13
8 18 11 10 2 -7 -1 -18 -6 -23z"/>
<path d="M2935 3650 c3 -5 11 -10 16 -10 6 0 7 5 4 10 -3 6 -11 10 -16 10 -6
0 -7 -4 -4 -10z"/>
<path d="M3120 3610 c-13 -8 -12 -10 3 -10 9 0 17 5 17 10 0 12 -1 12 -20 0z"/>
<path d="M2431 3524 c0 -11 3 -14 6 -6 3 7 2 16 -1 19 -3 4 -6 -2 -5 -13z"/>
<path d="M2645 3530 c-3 -5 2 -10 12 -11 10 0 13 -3 6 -5 -13 -6 -6 -34 9 -34
5 0 6 5 3 10 -3 6 1 10 9 10 9 0 16 5 16 10 0 7 8 7 23 -1 22 -12 22 -12 3 10
-20 22 -70 29 -81 11z"/>
<path d="M2455 3510 c-10 -11 -13 -20 -7 -20 6 0 14 5 17 10 9 15 25 12 25 -5
0 -12 4 -13 25 -3 19 9 22 14 14 25 -17 19 -53 16 -74 -7z"/>
<path d="M2705 3490 c-3 -5 -1 -10 4 -10 6 0 11 5 11 10 0 6 -2 10 -4 10 -3 0
-8 -4 -11 -10z"/>
<path d="M2840 3480 c0 -11 4 -20 9 -20 5 0 7 9 4 20 -3 11 -7 20 -9 20 -2 0
-4 -9 -4 -20z"/>
<path d="M2400 3442 c0 -11 27 -42 37 -42 3 0 -2 10 -13 23 -10 12 -20 24 -21
26 -2 2 -3 -1 -3 -7z"/>
<path d="M2338 3394 c-3 -24 -1 -31 9 -27 15 6 15 9 4 38 -7 17 -9 16 -13 -11z"/>
<path d="M2371 3394 c-1 -12 7 -30 17 -41 9 -10 13 -13 9 -7 -5 7 -12 25 -17
41 -7 23 -8 24 -9 7z"/>
<path d="M2199 3383 c-13 -16 -12 -17 4 -4 9 7 17 15 17 17 0 8 -8 3 -21 -13z"/>
<path d="M2311 3393 c-1 -6 -4 -20 -7 -30 -5 -17 -5 -17 6 0 6 10 9 23 6 30
-3 9 -5 9 -5 0z"/>
<path d="M2410 3383 c0 -5 9 -18 20 -28 11 -10 20 -14 20 -8 0 5 -9 18 -20 28
-11 10 -20 14 -20 8z"/>
<path d="M2342 3330 c0 -14 2 -19 5 -12 2 6 2 18 0 25 -3 6 -5 1 -5 -13z"/>
<path d="M2190 3248 c-12 -22 -12 -22 6 -6 10 10 15 20 12 24 -4 3 -12 -5 -18
-18z"/>
<path d="M2221 3144 c0 -11 3 -14 6 -6 3 7 2 16 -1 19 -3 4 -6 -2 -5 -13z"/>
<path d="M2184 3132 c3 -2 1 -15 -4 -28 -13 -33 -4 -30 14 4 13 25 13 29 0 29
-8 0 -12 -2 -10 -5z"/>
<path d="M2230 3077 c0 -8 7 -17 15 -21 8 -3 15 -3 15 0 0 3 -7 12 -15 20 -13
13 -15 13 -15 1z"/>
<path d="M2172 3050 c7 -10 14 -18 15 -16 6 6 -9 36 -18 36 -5 0 -4 -9 3 -20z"/>
<path d="M2271 3049 c-1 -4 5 -19 13 -33 l14 -27 5 28 c6 32 0 44 -12 24 -7
-11 -10 -11 -14 0 -3 8 -6 11 -6 8z"/>
<path d="M2270 2960 c-6 -11 -8 -20 -6 -20 3 0 10 9 16 20 6 11 8 20 6 20 -3
0 -10 -9 -16 -20z"/>
<path d="M2238 2903 c-7 -16 -23 -41 -35 -56 -25 -31 -30 -62 -12 -73 7 -4 9
0 5 13 -5 15 1 22 29 31 32 12 33 15 23 37 -8 19 -8 32 0 50 6 14 9 25 7 25
-3 0 -11 -12 -17 -27z m-10 -65 c-2 -6 -10 -14 -16 -16 -7 -2 -10 2 -6 12 7
18 28 22 22 4z"/>
<path d="M2105 2830 c3 -5 8 -10 11 -10 2 0 4 5 4 10 0 6 -5 10 -11 10 -5 0
-7 -4 -4 -10z"/>
<path d="M1923 2823 c4 -3 2 -12 -5 -20 -8 -11 -7 -12 6 -7 18 7 22 34 4 34
-6 0 -8 -3 -5 -7z"/>
<path d="M2070 2770 c-13 -8 -12 -10 3 -10 9 0 17 5 17 10 0 12 -1 12 -20 0z"/>
<path d="M3210 3700 c0 -19 3 -21 12 -12 9 9 9 15 0 24 -9 9 -12 7 -12 -12z"/>
<path d="M3215 3660 c3 -5 8 -10 11 -10 2 0 4 5 4 10 0 6 -5 10 -11 10 -5 0
-7 -4 -4 -10z"/>
<path d="M2067 3425 c-4 -8 -2 -17 3 -20 6 -4 10 3 10 14 0 25 -6 27 -13 6z"/>
<path d="M2985 3040 c-3 -6 1 -7 9 -4 18 7 21 14 7 14 -6 0 -13 -4 -16 -10z"/>
<path d="M3446 2985 c-3 -9 -6 -22 -5 -28 0 -7 5 -1 10 12 5 13 8 26 5 28 -2
2 -6 -3 -10 -12z"/>
<path d="M3200 2916 c0 -2 8 -10 18 -17 15 -13 16 -12 3 4 -13 16 -21 21 -21
13z"/>
<path d="M2725 2571 c-3 -6 -10 -9 -15 -6 -4 3 -11 -2 -14 -11 -9 -24 -7 -27
9 -11 8 9 20 17 27 20 7 2 10 7 7 11 -4 4 -10 2 -14 -3z"/>
<path d="M2662 2520 c0 -14 2 -19 5 -12 2 6 2 18 0 25 -3 6 -5 1 -5 -13z"/>
<path d="M921 2297 c-6 -6 -11 -18 -11 -26 0 -11 3 -11 13 4 8 10 19 15 25 11
7 -4 12 -3 12 2 0 15 -26 22 -39 9z"/>
<path d="M842 2090 c-27 -25 -27 -38 -3 -69 12 -16 21 -20 25 -12 4 6 3 11 -3
11 -12 0 -8 38 8 68 15 28 2 29 -27 2z"/>
<path d="M3478 1667 c-3 -19 -2 -25 4 -19 6 6 8 18 6 28 -3 14 -5 12 -10 -9z"/>
<path d="M3505 1669 c-4 -12 -2 -26 5 -33 10 -8 11 -8 6 1 -4 7 -2 22 4 33 6
12 7 20 1 20 -5 0 -13 -9 -16 -21z"/>
<path d="M3440 1650 c-13 -8 -12 -10 3 -10 9 0 17 5 17 10 0 12 -1 12 -20 0z"/>
<path d="M3531 1644 c0 -11 3 -14 6 -6 3 7 2 16 -1 19 -3 4 -6 -2 -5 -13z"/>
<path d="M4793 4070 c2 -8 -2 -19 -9 -25 -18 -14 -29 -65 -15 -65 19 0 12 -38
-9 -45 -11 -4 -32 -17 -48 -29 -15 -13 -85 -46 -157 -75 -71 -29 -155 -67
-186 -85 -30 -18 -76 -41 -102 -51 -50 -19 -100 -61 -91 -77 6 -9 -4 -73 -32
-217 -17 -84 -13 -104 6 -35 13 46 68 129 127 191 17 18 36 46 43 62 12 30 97
108 106 98 13 -12 -19 -85 -51 -117 -19 -19 -35 -40 -35 -48 0 -7 -4 -10 -10
-7 -5 3 -10 1 -10 -6 0 -10 -64 -115 -89 -145 -11 -13 -96 -193 -105 -222 -4
-12 -11 -20 -16 -17 -11 7 -15 -8 -40 -160 -12 -71 -37 -211 -55 -310 -35
-185 -135 -727 -160 -870 -8 -44 -18 -100 -23 -125 -9 -49 -6 -70 9 -70 6 0 7
5 3 11 -5 8 -1 8 14 0 26 -14 35 -14 27 -1 -3 6 0 10 9 10 8 0 17 -6 19 -12 4
-10 8 -9 17 2 9 11 13 12 17 3 6 -16 33 -17 33 -2 0 8 6 7 17 -2 13 -11 17
-11 20 -2 4 10 10 10 26 1 16 -8 22 -8 25 1 2 6 9 8 15 4 11 -7 217 -7 224 0
4 4 83 426 164 872 10 55 27 143 38 196 11 52 29 156 40 230 11 74 23 148 27
166 6 29 4 33 -20 39 -35 8 -31 39 4 39 31 0 40 11 40 49 0 16 4 43 10 60 5
17 25 119 45 226 65 352 67 361 92 373 24 11 48 68 39 92 -3 8 -2 15 3 15 13
0 20 63 9 80 -8 13 -9 13 -5 0z m-278 -520 c8 -38 52 -67 77 -51 15 9 18 8 18
-8 0 -10 -7 -24 -15 -31 -9 -7 -15 -29 -15 -54 0 -39 -48 -141 -50 -106 -1 8
-3 40 -6 70 -2 30 -4 75 -4 99 -1 35 -3 42 -13 32 -7 -7 -13 -52 -15 -116 -3
-94 -6 -107 -28 -130 -13 -14 -29 -23 -34 -20 -6 4 -9 -3 -7 -16 1 -12 -4 -24
-10 -26 -7 -3 -13 3 -13 12 0 14 -3 15 -15 5 -8 -7 -15 -26 -15 -43 0 -16 -8
-44 -19 -61 -10 -17 -26 -65 -36 -106 -10 -41 -21 -79 -26 -84 -5 -6 -9 -19
-9 -30 0 -12 -5 -28 -11 -36 -8 -11 -9 -7 -6 18 2 18 0 35 -5 38 -4 3 -8 22
-9 42 -1 26 -5 14 -15 -41 -8 -43 -21 -89 -31 -103 -9 -15 -17 -49 -18 -79 -3
-67 -33 -149 -50 -135 -16 13 -1 109 26 166 25 52 24 58 -3 30 -42 -43 -56
-78 -51 -126 3 -31 -1 -61 -15 -95 -10 -27 -22 -68 -26 -90 -4 -22 -11 -53
-16 -70 -5 -16 -12 -42 -15 -57 -3 -16 -10 -28 -15 -28 -15 0 -12 72 5 120 16
46 21 113 5 75 -7 -19 -8 -19 -15 -1 -11 26 7 91 25 91 23 0 51 82 48 140 -3
51 30 195 44 195 4 0 8 -20 8 -45 0 -25 4 -45 9 -45 15 0 21 15 26 62 2 24 11
61 20 81 9 21 13 43 9 49 -4 6 -3 8 3 5 5 -3 14 19 21 50 13 65 9 81 -7 30
-13 -40 -41 -58 -41 -27 0 36 22 125 36 148 21 32 33 19 24 -25 -12 -51 -4
-55 10 -4 6 22 14 42 18 45 5 3 19 40 32 83 55 185 88 250 143 280 19 10 24 7
44 -19 12 -17 25 -43 28 -58z m96 38 c-1 -5 -1 -17 -1 -28 0 -23 -26 -38 -41
-23 -15 15 7 65 27 61 8 -2 15 -6 15 -10z m-95 -325 c-10 -10 -19 5 -10 18 6
11 8 11 12 0 2 -7 1 -15 -2 -18z m-44 -150 c-2 -43 1 -89 6 -103 l10 -25 16
38 c9 21 23 37 33 37 25 0 11 -92 -31 -194 -20 -47 -36 -94 -36 -104 0 -9 -9
-35 -20 -57 l-20 -40 4 60 c5 59 5 60 -9 25 -20 -51 -17 -16 5 68 26 96 16
123 -28 81 -12 -11 -27 -17 -32 -14 -18 11 -10 42 14 58 27 18 42 65 27 80 -6
6 -11 26 -11 45 0 26 4 33 14 29 10 -4 17 2 21 16 12 41 27 77 34 77 3 0 5
-35 3 -77z m-118 -150 c-19 -52 -30 -70 -40 -61 -9 10 14 79 33 98 26 25 27
17 7 -37z m-44 -150 c0 -25 -8 -48 -24 -68 l-24 -30 -7 38 c-6 33 -4 41 21 67
16 15 30 29 32 29 1 1 2 -16 2 -36z m-180 -326 c-5 -43 -16 -87 -26 -100 -15
-21 -16 -19 -11 48 3 59 30 145 42 133 2 -1 -1 -38 -5 -81z m138 -27 c-24 -33
-51 -41 -42 -12 4 9 16 36 28 60 l21 42 8 -30 c6 -23 3 -37 -15 -60z m-74 -21
c6 -57 4 -75 -9 -96 -22 -33 -27 -25 -13 19 9 31 8 41 -6 63 -15 23 -16 31 -6
56 7 16 16 29 20 29 4 0 11 -32 14 -71z m102 -91 c-3 -29 -6 -69 -7 -88 0 -19
-3 -29 -6 -22 -2 6 -9 10 -14 6 -12 -7 -11 72 2 119 16 57 33 47 25 -15z m107
31 c-4 -15 -8 -17 -14 -8 -8 14 -3 29 11 29 4 0 6 -9 3 -21z m-265 -89 c-5
-51 -13 -69 -25 -57 -16 16 0 107 19 107 7 0 9 -18 6 -50z m-70 -166 c-12 -38
-23 -62 -25 -53 -4 17 36 133 43 126 2 -2 -6 -35 -18 -73z m224 -1 c-3 -13 -8
-23 -13 -23 -11 0 -11 26 -2 71 l7 34 6 -30 c3 -16 4 -40 2 -52z m-146 41 c-4
-9 -9 -15 -11 -12 -3 3 -3 13 1 22 4 9 9 15 11 12 3 -3 3 -13 -1 -22z m94 -43
c0 -6 -4 -13 -10 -16 -5 -3 -10 1 -10 9 0 9 5 16 10 16 6 0 10 -4 10 -9z m-40
-30 c0 -16 -7 -34 -15 -41 -12 -10 -15 -9 -15 6 0 30 12 64 21 64 5 0 9 -13 9
-29z"/>
<path d="M4547 3468 c-9 -8 -13 -18 -9 -25 5 -8 14 -4 31 13 25 26 9 35 -22
12z"/>
<path d="M4313 3182 c-13 -8 -33 -55 -33 -75 0 -7 8 3 17 21 10 20 21 31 29
28 8 -3 14 1 14 9 0 18 -13 26 -27 17z"/>
<path d="M4256 3055 c-3 -9 -6 -26 -5 -38 1 -16 4 -12 10 12 10 34 6 55 -5 26z"/>
<path d="M4191 3814 c0 -11 3 -14 6 -6 3 7 2 16 -1 19 -3 4 -6 -2 -5 -13z"/>
<path d="M4131 3544 c0 -11 3 -14 6 -6 3 7 2 16 -1 19 -3 4 -6 -2 -5 -13z"/>
<path d="M4122 3500 c0 -14 2 -19 5 -12 2 6 2 18 0 25 -3 6 -5 1 -5 -13z"/>
<path d="M4770 3450 c0 -8 -3 -24 -6 -35 -4 -17 0 -21 21 -23 15 -1 24 2 20 8
-3 6 -13 22 -21 38 -7 15 -14 20 -14 12z"/>
<path d="M4111 3424 c0 -11 3 -14 6 -6 3 7 2 16 -1 19 -3 4 -6 -2 -5 -13z"/>
<path d="M4102 3380 c0 -14 2 -19 5 -12 2 6 2 18 0 25 -3 6 -5 1 -5 -13z"/>
<path d="M4091 3294 c0 -11 3 -14 6 -6 3 7 2 16 -1 19 -3 4 -6 -2 -5 -13z"/>
<path d="M600 2775 c-20 -25 -6 -31 17 -7 14 14 18 22 9 22 -8 0 -19 -7 -26
-15z"/>
<path d="M4682 2640 c0 -14 2 -19 5 -12 2 6 2 18 0 25 -3 6 -5 1 -5 -13z"/>
<path d="M591 2634 c0 -11 3 -14 6 -6 3 7 2 16 -1 19 -3 4 -6 -2 -5 -13z"/>
<path d="M4672 2580 c0 -14 2 -19 5 -12 2 6 2 18 0 25 -3 6 -5 1 -5 -13z"/>
<path d="M603 2515 c0 -22 2 -30 4 -17 2 12 2 30 0 40 -3 9 -5 -1 -4 -23z"/>
<path d="M4661 2524 c0 -11 3 -14 6 -6 3 7 2 16 -1 19 -3 4 -6 -2 -5 -13z"/>
<path d="M612 2440 c0 -19 2 -27 5 -17 2 9 2 25 0 35 -3 9 -5 1 -5 -18z"/>
<path d="M4775 1065 c3 -18 0 -38 -9 -50 -14 -20 -34 -20 -983 -28 -532 -4
-1083 -8 -1223 -8 -525 -1 -2146 12 -2178 17 -18 3 -42 14 -52 24 -16 16 -19
17 -24 3 -4 -9 -4 -18 -1 -21 3 -3 5 0 5 7 0 7 5 9 10 6 6 -4 7 -11 4 -17 -4
-6 1 -17 10 -24 10 -7 17 -15 16 -18 0 -3 2 -21 5 -39 4 -19 7 -123 8 -232 l2
-199 30 -8 c17 -5 964 -10 2137 -11 l2108 -2 0 75 c0 41 5 93 11 115 6 22 14
94 18 160 l6 120 45 3 c41 3 47 6 63 40 16 34 17 40 2 77 -12 32 -14 34 -10
10z m-4420 -83 c-3 -3 -11 0 -18 7 -9 10 -8 11 6 5 10 -3 15 -9 12 -12z m2413
-29 c-10 -2 -26 -2 -35 0 -10 3 -2 5 17 5 19 0 27 -2 18 -5z"/>
<path d="M2093 1060 c-18 -11 -33 -24 -33 -30 0 -7 170 -10 505 -10 330 0 505
3 505 10 0 6 -9 19 -20 30 -19 19 -33 20 -472 20 -434 0 -454 -1 -485 -20z"/>
<path d="M3278 3 c12 -2 32 -2 45 0 12 2 2 4 -23 4 -25 0 -35 -2 -22 -4z"/>
</g>
</svg>
